<mxfile host="app.diagrams.net" modified="2023-08-02T10:28:22.461Z" agent="Mozilla/5.0 (Macintosh; Intel Mac OS X 10_15_7) AppleWebKit/537.36 (KHTML, like Gecko) Chrome/115.0.0.0 Safari/537.36" version="21.6.6" etag="C1N0PbixuHaxFZLM1saG" type="github">
  <diagram name="第 1 页" id="Ap7DxpFshRl5OZrKu4j2">
    <mxGraphModel>
      <root>
        <mxCell id="0" />
        <mxCell id="1" parent="0" />
      </root>
    </mxGraphModel>
  </diagram>
</mxfile>
